# xmcd
#
# Track frame offsets: 
#        150
#        18085
#        36329
#        52509
#        72781
#        92526
#        118241
#        134280
#        151584
#        171414
#        201402
#        225222
#        251621
#
# Disc length: 3615 seconds
#
# Revision: 0
# Processed by: cddbd v1.5.2PL0 Copyright (c) Steve Scherf et al.
# Submitted via: ExactAudioCopy v1.0b1
#
DISCID=9c0e1d0d
DTITLE=Sowelu - Best
DYEAR=1900
DGENRE=JPop
TTITLE0=NEVER feat.VERBAL(m-flo)
TTITLE1=こぼれそうな唇 feat.Mummy-D(RHYMESTER)
TTITLE2=年下の君に
TTITLE3=ここもそこも…
TTITLE4=マンネリズム feat.RYO-Z(RIP SLYME)
TTITLE5=I want U to... feat.WISE
TTITLE6=Let ME Lead U
TTITLE7=ありきたりの夜
TTITLE8=Misty
TTITLE9=29 Tonight
TTITLE10=タイムカプセルの丘
TTITLE11=雨粒のBirthday
TTITLE12=SO EXCLUSIVE (Bonus Track)
EXTD=
EXTT0=
EXTT1=
EXTT2=
EXTT3=
EXTT4=
EXTT5=
EXTT6=
EXTT7=
EXTT8=
EXTT9=
EXTT10=
EXTT11=
EXTT12=
PLAYORDER=
